#!OML:ASF H:\Dans Jumps\Project 1\Capture day 1\Session 1\subject.ASF
:FULLY-SPECIFIED
:DEGREES
130
root 0.397332 17.5664 -14.1734 6.24615 -0.0441627 -1.64797
lowerback -1.34691 -0.721654 0.730535
upperback 3.95817 -1.07267 1.87944
thorax 4.86362 -0.545562 1.47398
lowerneck -12.0793 0.675919 -1.85419
upperneck 34.1598 1.56799 -0.258027
head 13.5237 0.406513 0.455825
rclavicle -1.55052e-014 2.46493e-014
rhumerus -23.5314 -13.5595 -82.8653
rradius 24.5955
rwrist 31.031
rhand -20.0754 -26.9477
rfingers 7.12502
rthumb 6.26704 -56.835
lclavicle -1.55052e-014 2.46493e-014
lhumerus -19.9615 -7.43731 92.1735
lradius 21.2757
lwrist 5.45562
lhand -26.1001 -3.81938
lfingers 7.12502
lthumb 0.44907 26.1599
rfemur -14.4649 -3.54265 20.3499
rtibia 22.3138
rfoot -13.0122 -1.55571
rtoes 17.2202
lfemur -13.7776 6.64398 -17.8042
ltibia 20.6551
lfoot -11.3795 3.09192
ltoes 2.81191
131
root 0.398549 17.5626 -14.1859 6.28957 -0.0538943 -1.66143
lowerback -1.23016 -0.71569 0.737868
upperback 3.98299 -1.06371 1.89217
thorax 4.82297 -0.541192 1.4848
lowerneck -12.1162 0.681475 -1.84303
upperneck 34.0737 1.57993 -0.278704
head 13.4943 0.411401 0.447294
rclavicle -1.86858e-014 1.07344e-014
rhumerus -23.5005 -13.5419 -82.8424
rradius 24.6084
rwrist 31.0106
rhand -20.0694 -26.9344
rfingers 7.12502
rthumb 6.27282 -56.8215
lclavicle -1.86858e-014 1.07344e-014
lhumerus -19.9855 -7.56759 92.1726
lradius 21.4193
lwrist 5.63259
lhand -26.0981 -3.81556
lfingers 7.12502
lthumb 0.451038 26.1637
rfemur -14.6499 -3.50904 20.3647
rtibia 22.4804
rfoot -13.0348 -1.58225
rtoes 17.1684
lfemur -13.9917 6.67803 -17.8076
ltibia 20.8758
lfoot -11.4234 3.08233
ltoes 2.77298
132
root 0.399848 17.5585 -14.1988 6.33146 -0.069622 -1.67636
lowerback -1.10657 -0.706726 0.747338
upperback 4.01315 -1.05075 1.90434
thorax 4.78389 -0.53475 1.49411
lowerneck -12.1611 0.686838 -1.82569
upperneck 33.9864 1.59149 -0.30343
head 13.4662 0.416364 0.436086
rclavicle 1.0635e-014 -1.43125e-014
rhumerus -23.4662 -13.534 -82.8162
rradius 24.6184
rwrist 30.997
rhand -20.0641 -26.9173
rfingers 7.12502
rthumb 6.27797 -56.8043
lclavicle 1.0635e-014 -1.43125e-014
lhumerus -20.005 -7.71132 92.1724
lradius 21.5615
lwrist 5.81145
lhand -26.0985 -3.82105
lfingers 7.12502
lthumb 0.450568 26.1582
rfemur -14.8403 -3.47451 20.3807
rtibia 22.6558
rfoot -13.063 -1.60421
rtoes 17.1157
lfemur -14.2092 6.71468 -17.8097
ltibia 21.1065
lfoot -11.4737 3.07746
ltoes 2.73952
133
root 0.401127 17.5542 -14.2125 6.3749 -0.0879662 -1.69264
lowerback -0.976809 -0.695327 0.759149
upperback 4.04682 -1.03447 1.91511
thorax 4.74483 -0.526549 1.50085
lowerneck -12.2067 0.690677 -1.80595
upperneck 33.8947 1.59931 -0.32596
head 13.4365 0.420349 0.42478
rclavicle -1.49089e-015 5.56597e-015
rhumerus -23.4305 -13.5328 -82.7897
rradius 24.6276
rwrist 30.9854
rhand -20.0656 -26.8996
rfingers 7.12502
rthumb 6.27646 -56.7866
lclavicle -1.49089e-015 5.56597e-015
lhumerus -20.018 -7.86984 92.1708
lradius 21.6975
lwrist 5.98894
lhand -26.105 -3.82002
lfingers 7.12502
lthumb 0.44435 26.1593
rfemur -15.0403 -3.4387 20.3988
rtibia 22.8403
rfoot -13.0931 -1.62562
rtoes 17.0495
lfemur -14.435 6.75352 -17.8106
ltibia 21.3461
lfoot -11.5282 3.07346
ltoes 2.71113
134
root 0.402322 17.5498 -14.227 6.4257 -0.105976 -1.70915
lowerback -0.843294 -0.683074 0.770826
upperback 4.08103 -1.01694 1.92597
thorax 4.70419 -0.517732 1.50781
lowerneck -12.2526 0.694289 -1.78452
upperneck 33.7973 1.6062 -0.348442
head 13.4045 0.424217 0.413059
rclavicle 9.44227e-015 -1.11319e-014
rhumerus -23.3948 -13.5273 -82.7626
rradius 24.639
rwrist 30.9651
rhand -20.0721 -26.8896
rfingers 7.12502
rthumb 6.27021 -56.7768
lclavicle 9.44227e-015 -1.11319e-014
lhumerus -20.0264 -8.02951 92.1681
lradius 21.8255
lwrist 6.15259
lhand -26.1125 -3.819
lfingers 7.12502
lthumb 0.4371 26.1603
rfemur -15.257 -3.40416 20.4184
rtibia 23.0354
rfoot -13.1241 -1.64675
rtoes 16.9767
lfemur -14.676 6.79745 -17.8123
ltibia 21.5931
lfoot -11.5844 3.0646
ltoes 2.68604
135
root 0.403509 17.5452 -14.2423 6.48285 -0.123261 -1.72195
lowerback -0.70496 -0.670894 0.778498
upperback 4.11561 -0.999223 1.93609
thorax 4.66127 -0.508955 1.51626
lowerneck -12.2946 0.697731 -1.76381
upperneck 33.6919 1.61212 -0.36914
head 13.3682 0.427914 0.40199
rclavicle 9.34288e-015 -1.78906e-014
rhumerus -23.3615 -13.5068 -82.7366
rradius 24.6565
rwrist 30.9292
rhand -20.0849 -26.893
rfingers 7.12502
rthumb 6.25784 -56.7805
lclavicle 9.34288e-015 -1.78906e-014
lhumerus -20.0326 -8.19124 92.1637
lradius 21.9506
lwrist 6.30667
lhand -26.1135 -3.80851
lfingers 7.12502
lthumb 0.436162 26.1708
rfemur -15.4898 -3.37495 20.4348
rtibia 23.2427
rfoot -13.1551 -1.66468
rtoes 16.8887
lfemur -14.9301 6.84365 -17.8193
ltibia 21.8462
lfoot -11.642 3.05343
ltoes 2.66172
